<mxfile host="Electron" modified="2025-03-06T09:44:45.393Z" agent="Mozilla/5.0 (Windows NT 10.0; Win64; x64) AppleWebKit/537.36 (KHTML, like Gecko) draw.io/24.5.3 Chrome/124.0.6367.207 Electron/30.0.6 Safari/537.36" etag="uNyh0sAOjccJ0JEwh5CL" version="24.5.3" type="device">
  <diagram name="第 1 页" id="85vH5fQke8eeNWxDB3T2">
    <mxGraphModel dx="1008" dy="690" grid="1" gridSize="10" guides="1" tooltips="1" connect="1" arrows="1" fold="1" page="1" pageScale="1" pageWidth="1654" pageHeight="1169" math="0" shadow="0">
      <root>
        <mxCell id="0" />
        <mxCell id="1" parent="0" />
        <mxCell id="-rYG7EX6J1gY36FJjDkv-20" value="" style="rounded=0;whiteSpace=wrap;html=1;fillColor=none;strokeColor=none;" vertex="1" parent="1">
          <mxGeometry x="102" y="90" width="850" height="290" as="geometry" />
        </mxCell>
        <mxCell id="-rYG7EX6J1gY36FJjDkv-1" value="结束" style="strokeWidth=2;html=1;shape=mxgraph.flowchart.terminator;whiteSpace=wrap;fontSize=18;fontStyle=1;fillColor=#f8cecc;strokeColor=#b85450;" vertex="1" parent="1">
          <mxGeometry x="570" y="130" width="100" height="60" as="geometry" />
        </mxCell>
        <mxCell id="-rYG7EX6J1gY36FJjDkv-2" value="模型训练" style="strokeWidth=2;html=1;shape=mxgraph.flowchart.start_1;whiteSpace=wrap;fontSize=18;fontStyle=1;fillColor=#d5e8d4;strokeColor=#82b366;" vertex="1" parent="1">
          <mxGeometry x="138" y="255" width="130" height="80" as="geometry" />
        </mxCell>
        <mxCell id="-rYG7EX6J1gY36FJjDkv-9" style="edgeStyle=orthogonalEdgeStyle;rounded=0;orthogonalLoop=1;jettySize=auto;html=1;exitX=1;exitY=0.5;exitDx=0;exitDy=0;exitPerimeter=0;strokeWidth=2;" edge="1" parent="1" source="-rYG7EX6J1gY36FJjDkv-3" target="-rYG7EX6J1gY36FJjDkv-4">
          <mxGeometry relative="1" as="geometry" />
        </mxCell>
        <mxCell id="-rYG7EX6J1gY36FJjDkv-13" style="edgeStyle=orthogonalEdgeStyle;rounded=0;orthogonalLoop=1;jettySize=auto;html=1;exitX=0.5;exitY=0;exitDx=0;exitDy=0;exitPerimeter=0;entryX=0.5;entryY=1;entryDx=0;entryDy=0;strokeWidth=2;" edge="1" parent="1" source="-rYG7EX6J1gY36FJjDkv-3" target="-rYG7EX6J1gY36FJjDkv-7">
          <mxGeometry relative="1" as="geometry" />
        </mxCell>
        <mxCell id="-rYG7EX6J1gY36FJjDkv-3" value="已有数据集" style="strokeWidth=2;html=1;shape=mxgraph.flowchart.decision;whiteSpace=wrap;fontSize=18;fontStyle=1;fillColor=#fff2cc;strokeColor=#d6b656;" vertex="1" parent="1">
          <mxGeometry x="317" y="250" width="150" height="90" as="geometry" />
        </mxCell>
        <mxCell id="-rYG7EX6J1gY36FJjDkv-10" style="edgeStyle=orthogonalEdgeStyle;rounded=0;orthogonalLoop=1;jettySize=auto;html=1;exitX=1;exitY=0.5;exitDx=0;exitDy=0;entryX=0;entryY=0.5;entryDx=0;entryDy=0;strokeWidth=2;" edge="1" parent="1" source="-rYG7EX6J1gY36FJjDkv-4" target="-rYG7EX6J1gY36FJjDkv-5">
          <mxGeometry relative="1" as="geometry" />
        </mxCell>
        <mxCell id="-rYG7EX6J1gY36FJjDkv-4" value="设置模型参数" style="rounded=1;whiteSpace=wrap;html=1;absoluteArcSize=1;arcSize=14;strokeWidth=2;fontSize=18;fontStyle=1;fillColor=#dae8fc;strokeColor=#6c8ebf;" vertex="1" parent="1">
          <mxGeometry x="530" y="260" width="160" height="70" as="geometry" />
        </mxCell>
        <mxCell id="-rYG7EX6J1gY36FJjDkv-14" style="edgeStyle=orthogonalEdgeStyle;rounded=0;orthogonalLoop=1;jettySize=auto;html=1;exitX=0.5;exitY=0;exitDx=0;exitDy=0;entryX=0.5;entryY=1;entryDx=0;entryDy=0;strokeWidth=2;" edge="1" parent="1" source="-rYG7EX6J1gY36FJjDkv-5" target="-rYG7EX6J1gY36FJjDkv-12">
          <mxGeometry relative="1" as="geometry" />
        </mxCell>
        <mxCell id="-rYG7EX6J1gY36FJjDkv-5" value="查看训练结果" style="rounded=1;whiteSpace=wrap;html=1;absoluteArcSize=1;arcSize=14;strokeWidth=2;fontSize=18;fontStyle=1;fillColor=#dae8fc;strokeColor=#6c8ebf;" vertex="1" parent="1">
          <mxGeometry x="747" y="260" width="160" height="70" as="geometry" />
        </mxCell>
        <mxCell id="-rYG7EX6J1gY36FJjDkv-16" style="edgeStyle=orthogonalEdgeStyle;rounded=0;orthogonalLoop=1;jettySize=auto;html=1;exitX=1;exitY=0.5;exitDx=0;exitDy=0;entryX=0;entryY=0.5;entryDx=0;entryDy=0;strokeWidth=2;" edge="1" parent="1" source="-rYG7EX6J1gY36FJjDkv-7" target="-rYG7EX6J1gY36FJjDkv-4">
          <mxGeometry relative="1" as="geometry" />
        </mxCell>
        <mxCell id="-rYG7EX6J1gY36FJjDkv-7" value="上传数据集" style="rounded=1;whiteSpace=wrap;html=1;absoluteArcSize=1;arcSize=14;strokeWidth=2;fontSize=18;fontStyle=1;fillColor=#dae8fc;strokeColor=#6c8ebf;" vertex="1" parent="1">
          <mxGeometry x="312" y="130" width="160" height="70" as="geometry" />
        </mxCell>
        <mxCell id="-rYG7EX6J1gY36FJjDkv-8" style="edgeStyle=orthogonalEdgeStyle;rounded=0;orthogonalLoop=1;jettySize=auto;html=1;exitX=1;exitY=0.5;exitDx=0;exitDy=0;exitPerimeter=0;entryX=0;entryY=0.5;entryDx=0;entryDy=0;entryPerimeter=0;strokeWidth=2;" edge="1" parent="1" source="-rYG7EX6J1gY36FJjDkv-2" target="-rYG7EX6J1gY36FJjDkv-3">
          <mxGeometry relative="1" as="geometry" />
        </mxCell>
        <mxCell id="-rYG7EX6J1gY36FJjDkv-12" value="对比模型" style="rounded=1;whiteSpace=wrap;html=1;absoluteArcSize=1;arcSize=14;strokeWidth=2;fontSize=18;fontStyle=1;fillColor=#dae8fc;strokeColor=#6c8ebf;" vertex="1" parent="1">
          <mxGeometry x="747" y="125" width="160" height="70" as="geometry" />
        </mxCell>
        <mxCell id="-rYG7EX6J1gY36FJjDkv-15" style="edgeStyle=orthogonalEdgeStyle;rounded=0;orthogonalLoop=1;jettySize=auto;html=1;exitX=0;exitY=0.5;exitDx=0;exitDy=0;entryX=1;entryY=0.5;entryDx=0;entryDy=0;entryPerimeter=0;strokeWidth=2;" edge="1" parent="1" source="-rYG7EX6J1gY36FJjDkv-12" target="-rYG7EX6J1gY36FJjDkv-1">
          <mxGeometry relative="1" as="geometry" />
        </mxCell>
        <mxCell id="-rYG7EX6J1gY36FJjDkv-18" value="是" style="text;html=1;align=center;verticalAlign=middle;resizable=0;points=[];autosize=1;strokeColor=none;fillColor=none;fontStyle=1;fontSize=18;" vertex="1" parent="1">
          <mxGeometry x="480" y="300" width="40" height="40" as="geometry" />
        </mxCell>
        <mxCell id="-rYG7EX6J1gY36FJjDkv-19" value="否" style="text;html=1;align=center;verticalAlign=middle;resizable=0;points=[];autosize=1;strokeColor=none;fillColor=none;fontStyle=1;fontSize=18;" vertex="1" parent="1">
          <mxGeometry x="390" y="210" width="40" height="40" as="geometry" />
        </mxCell>
      </root>
    </mxGraphModel>
  </diagram>
</mxfile>
